<?xml version="1.0" encoding="utf-8"?>
<!-- Generator: Adobe Illustrator 24.3.0, SVG Export Plug-In . SVG Version: 6.00 Build 0)  -->
<svg version="1.0" id="图层_1" xmlns="http://www.w3.org/2000/svg" xmlns:xlink="http://www.w3.org/1999/xlink" x="0px" y="0px"
	 viewBox="0 0 20 20" style="enable-background:new 0 0 20 20;" xml:space="preserve">
<style type="text/css">
	.st0{fill:url(#形状结合_1_);}
</style>
<g id="home">
	<g id="Mintology-活动预热2备份" transform="translate(-1400.000000, -1046.000000)">
		<g id="logo-instagram" transform="translate(1400.000000, 1046.000000)">
			
				<linearGradient id="形状结合_1_" gradientUnits="userSpaceOnUse" x1="-279.0192" y1="387.1597" x2="-279.5192" y2="386.2911" gradientTransform="matrix(19.4118 0 0 -19.4118 5431.7715 7515.8916)">
				<stop  offset="0" style="stop-color:#8A39C3"/>
				<stop  offset="0.5651" style="stop-color:#DB2D71"/>
				<stop  offset="1" style="stop-color:#FAB85D"/>
			</linearGradient>
			<path id="形状结合" class="st0" d="M14,0.3c3.1,0,5.7,2.5,5.7,5.7l0,0V14c0,3.1-2.5,5.7-5.7,5.7l0,0H6
				c-3.1,0-5.7-2.5-5.7-5.7l0,0V6c0-3.1,2.5-5.7,5.7-5.7l0,0H14z M14,1.9H6c-1.1,0-2.1,0.4-2.9,1.2S1.9,4.9,1.9,6l0,0V14
				c0,1.1,0.4,2.1,1.2,2.9s1.8,1.2,2.9,1.2l0,0H14c1.1,0,2.1-0.4,2.9-1.2s1.2-1.8,1.2-2.9l0,0V6c0-1.1-0.4-2.1-1.2-2.9
				S15.1,1.9,14,1.9L14,1.9z M10,5.1c2.7,0,4.9,2.2,4.9,4.9s-2.2,4.9-4.9,4.9S5.1,12.7,5.1,10S7.3,5.1,10,5.1z M10,6.8
				c-1.8,0-3.2,1.5-3.2,3.2s1.5,3.2,3.2,3.2s3.2-1.5,3.2-3.2S11.8,6.8,10,6.8z M15.3,3.5c0.7,0,1.2,0.5,1.2,1.2S15.9,6,15.3,6
				C14.6,6,14,5.4,14,4.7S14.6,3.5,15.3,3.5z"/>
		</g>
	</g>
</g>
</svg>
