<?xml version="1.0" encoding="UTF-8"?>
<svg width="40px" height="40px" viewBox="0 0 40 40" version="1.1" xmlns="http://www.w3.org/2000/svg" xmlns:xlink="http://www.w3.org/1999/xlink">
    <title>etherscan</title>
    <g id="home" stroke="none" stroke-width="1" fill="none" fill-rule="evenodd">
        <g id="Mintology-活动预热2" transform="translate(-1193.000000, -688.000000)" fill-rule="nonzero">
            <g id="etherscan" transform="translate(1193.000000, 688.000000)">
                <path d="M19.8592168,39.5556607 C15.2480201,39.5556607 11.0729136,37.5570171 7.89511308,34.7840428 C20.0391272,33.3330208 29.2537004,29.5529352 35.5369421,23.4457366 L35.5369361,23.4457424 C36.789829,22.2517984 38.084552,21.1025291 39.4186687,20.0000872 C40.8325356,31.8546635 30.9393776,39.5556607 19.8572085,39.5556607 L19.8592168,39.5556607 Z" id="路径" fill="#979695"></path>
                <path d="M8.3527308,18.0053709 C8.3527308,19.7399526 8.44464192,26.0818296 8.3527308,29.7973847 C7.72695038,30.4329405 5.36854764,31.0000513 3.1079161,30.4329405 C1.97369447,28.5653832 0.444447766,24.2435856 0.444447766,20.3520303 C0.444447766,9.41066992 8.58737912,0.44445636 19.4993918,0.44445636 C29.067942,0.44445636 37.6938856,7.6565546 37.6938856,15.2323837 C37.6938856,16.5895404 31.9386875,21.224211 30.497428,22.2586849 C30.497428,20.1662375 30.4680947,13.3022252 30.497428,10.9203787 C30.5150281,9.1760216 25.4833988,8.88073141 24.4469484,10.0247327 L24.4469484,24.9534689 C24.3569927,26.1209355 23.1171671,26.3067154 22.2293458,26.2206703 L22.2293458,13.9808358 C20.731389,12.5982545 18.1872063,12.5317689 16.0849792,13.9808358 L16.0849792,27.9200434 C15.3907581,28.7570241 15.267558,29.3867104 14.2604424,29.7973804 C14.1137757,26.672397 14.4735981,20.4889203 14.2604424,18.0053666 C13.7031069,16.5875853 9.85652708,16.5875853 8.35270502,18.0053666 L8.3527308,18.0053709 Z" id="路径" fill="#0C598B"></path>
            </g>
        </g>
    </g>
</svg>