<?xml version="1.0" encoding="utf-8"?>
<!-- Generator: Adobe Illustrator 24.3.0, SVG Export Plug-In . SVG Version: 6.00 Build 0)  -->
<svg version="1.0" id="图层_1" xmlns="http://www.w3.org/2000/svg" xmlns:xlink="http://www.w3.org/1999/xlink" x="0px" y="0px"
	 viewBox="0 0 20 20" style="enable-background:new 0 0 20 20;" xml:space="preserve">
<style type="text/css">
	.st0{filter:url(#filter-1);}
</style>
<filter  id="filter-1">
	<feColorMatrix  in="SourceGraphic" type="matrix" values="0 0 0 0 0.000000 0 0 0 0 0.670588 0 0 0 0 0.890196 0 0 0 1.000000 0">
		</feColorMatrix>
</filter>
<g id="home">
	<g id="推特_twitter44" transform="translate(-1370.000000, -1046.000000)" class="st0">
		<g transform="translate(1370.000000, 1046.000000)">
			<path id="形状_1_" d="M14.3,8c0-0.1,0-0.2,0-0.3c0.4-0.3,0.8-0.7,1.1-1.2c-0.4,0.2-0.8,0.3-1.3,0.3c0.5-0.3,0.8-0.7,1-1.3
				c-0.4,0.3-0.9,0.4-1.4,0.5c-0.4-0.5-1-0.8-1.6-0.8c-1.2,0-2.2,1-2.2,2.3c0,0.2,0,0.4,0.1,0.5C8.1,8.1,6.5,7.1,5.4,5.7
				C5.2,6.1,5.1,6.5,5.1,6.9c0,0.8,0.4,1.5,1,2c-0.4,0-0.7-0.1-1-0.3c0,0,0,0,0,0c0,1.1,0.8,2.1,1.8,2.3C6.6,11,6.4,11,6.2,11
				c-0.1,0-0.3,0-0.4,0c0.3,0.9,1.1,1.6,2.1,1.6c-0.8,0.6-1.7,1-2.7,1c-0.2,0-0.4,0-0.5,0c1,0.7,2.1,1.1,3.4,1.1
				C12.1,14.6,14.3,11.1,14.3,8L14.3,8z M20,10c0-5.5-4.5-10-10-10S0,4.5,0,10s4.5,10,10,10S20,15.5,20,10z M0.9,10
				C0.9,5,5,0.9,10,0.9S19.1,5,19.1,10S15,19.1,10,19.1S0.9,15,0.9,10z"/>
		</g>
	</g>
</g>
</svg>
