<?xml version="1.0" encoding="utf-8"?>
<!-- Generator: Adobe Illustrator 24.3.0, SVG Export Plug-In . SVG Version: 6.00 Build 0)  -->
<svg version="1.0" id="图层_1" xmlns="http://www.w3.org/2000/svg" xmlns:xlink="http://www.w3.org/1999/xlink" x="0px" y="0px"
	 viewBox="0 0 44 44" style="enable-background:new 0 0 44 44;" xml:space="preserve">
<g id="home">
	<g id="Mintology-活动预热2备份" transform="translate(-1453.000000, -1026.000000)">
		<g id="discord" transform="translate(1453.000000, 1026.000000)">
			<path id="形状" d="M31.1,15.4c-3-2.3-5.9-2.2-5.9-2.2L25,13.5c3.6,1.1,5.2,2.7,5.2,2.7l0,0c-1.9-1.1-4-1.8-6.2-2l0,0
				c-1.4-0.1-2.8-0.1-4.2,0.1l0,0c-0.1,0-0.2,0-0.3,0.1v0c-1.6,0.2-3.3,0.6-4.8,1.3l0,0c-0.4,0.2-0.8,0.4-1.2,0.6
				c0,0,1.8-1.6,5.5-2.7l-0.2-0.3c0,0-2.9-0.1-5.9,2.2v0c-1.9,3.8-2.9,7.9-3,12.2c0,0,1.8,3.1,6.4,3.2c0,0,0.7-1,1.4-1.8
				C15,28.2,14,26.5,14,26.5l0,0c0.2,0.1,0.4,0.2,0.6,0.3c0,0,0,0.1,0.1,0.1c0.1,0.1,0.1,0.1,0.2,0.1h0c0.5,0.3,1,0.5,1.5,0.7l0,0
				c1,0.4,2,0.7,3.1,0.9l0,0c1.8,0.3,3.6,0.3,5.4,0l0,0c1-0.2,2-0.5,3-0.9l0,0c0.8-0.3,1.7-0.7,2.4-1.2c0,0-1,1.7-3.8,2.5
				c0.6,0.8,1.4,1.7,1.4,1.7c4.6-0.1,6.4-3.2,6.3-3.1v0C34,23.4,33,19.2,31.1,15.4L31.1,15.4z M18.1,25.6L18.1,25.6
				c-1.3-0.1-2.3-1.2-2.1-2.5c0.1-1.1,1-2.1,2.1-2.1l0,0c1.3,0.1,2.3,1.2,2.1,2.5C20.2,24.6,19.2,25.5,18.1,25.6L18.1,25.6z
				 M25.7,25.6L25.7,25.6c-1.3,0.1-2.4-0.8-2.5-2.1C23,22.2,24,21.1,25.3,21c1.3-0.1,2.4,0.8,2.5,2.1c0,0.1,0,0.1,0,0.2l0,0
				C27.9,24.5,26.9,25.6,25.7,25.6L25.7,25.6z M22,44L22,44C9.8,44,0,34.2,0,22S9.8,0,22,0s22,9.8,22,22v0C44,34.1,34.1,44,22,44
				L22,44z M22,2.2L22,2.2C11.1,2.2,2.2,11.1,2.2,22C2.2,33,11.1,41.8,22,41.8c10.9,0,19.8-8.9,19.8-19.8l0,0
				C41.8,11.1,32.9,2.2,22,2.2L22,2.2z"/>
		</g>
	</g>
</g>
</svg>
